<?xml version="1.0" standalone="no"?>
<!DOCTYPE svg PUBLIC "-//W3C//DTD SVG 20010904//EN"
 "http://www.w3.org/TR/2001/REC-SVG-20010904/DTD/svg10.dtd">
<svg version="1.0" xmlns="http://www.w3.org/2000/svg"
 width="1024.000000pt" height="1024.000000pt" viewBox="0 0 1024.000000 1024.000000"
 preserveAspectRatio="xMidYMid meet">

<g transform="translate(0.000000,1024.000000) scale(0.100000,-0.100000)"
fill="#000000" stroke="none">
<path d="M4420 7679 c-919 -5 -936 -6 -1010 -27 -172 -49 -270 -99 -397 -200
-150 -121 -262 -239 -405 -427 l-91 -120 32 -6 c17 -4 787 -7 1711 -8 l1679
-1 45 57 c139 177 285 370 347 458 39 55 97 138 130 184 32 46 59 87 59 90 0
8 -862 8 -2100 0z"/>
<path d="M8123 7679 c-29 -8 -96 -68 -327 -289 l-28 -28 37 -58 c21 -33 43
-62 49 -66 6 -4 26 5 46 19 67 51 297 252 324 283 44 53 31 117 -28 140 -31
11 -30 11 -73 -1z"/>
<path d="M7434 7549 c-38 -33 -70 -64 -72 -69 -2 -5 12 -26 30 -47 67 -76 66
-71 12 -94 -122 -54 -249 -170 -298 -274 -66 -140 -79 -311 -33 -444 14 -40
24 -78 21 -84 -2 -7 -27 -27 -54 -44 -27 -18 -96 -73 -152 -121 -109 -94 -300
-226 -427 -294 -104 -56 -215 -140 -251 -190 -17 -23 -30 -45 -30 -50 0 -14
57 -9 102 11 24 10 79 31 123 46 96 33 200 84 317 156 96 60 359 261 427 326
48 47 42 48 132 -12 143 -95 386 -108 544 -31 86 43 141 89 215 182 l57 72 40
-52 c22 -28 52 -57 65 -64 23 -13 31 -10 105 40 44 29 88 58 99 65 18 12 17
14 -16 43 -91 81 -139 132 -273 287 -80 93 -195 222 -257 288 -61 66 -166 186
-232 268 -67 81 -122 147 -123 147 -1 0 -33 -27 -71 -61z"/>
<path d="M6748 7452 l-176 -2 -31 -36 c-34 -39 -39 -68 -15 -102 15 -22 19
-22 233 -22 236 0 238 0 256 58 10 34 -34 95 -75 104 -8 2 -94 2 -192 0z"/>
<path d="M8515 7210 c-42 -21 -336 -298 -335 -315 0 -5 25 -37 54 -70 l54 -59
118 104 c217 192 244 221 244 264 0 50 -13 72 -51 85 -41 14 -37 14 -84 -9z"/>
<path d="M6341 7133 c-30 -15 -71 -64 -71 -85 0 -5 9 -17 20 -28 18 -18 33
-20 184 -20 163 0 164 0 180 25 22 33 20 59 -6 89 -21 22 -32 25 -148 30 -105
5 -130 3 -159 -11z"/>
<path d="M6771 7097 c-19 -36 -10 -79 21 -96 24 -14 28 -14 47 3 13 12 21 31
21 51 0 58 -64 88 -89 42z"/>
<path d="M6242 6840 c-77 -9 -94 -22 -66 -51 19 -19 37 -21 235 -26 225 -6
259 -2 259 36 0 10 -8 25 -18 34 -16 15 -43 17 -183 16 -90 -1 -192 -5 -227
-9z"/>
<path d="M5105 6679 c-122 -12 -305 -44 -389 -68 -296 -86 -770 -308 -884
-415 l-32 -30 -168 -8 c-92 -5 -205 -15 -252 -24 -86 -16 -327 -102 -423 -151
-144 -73 -294 -197 -341 -283 l-28 -52 118 4 c109 3 125 6 184 34 36 18 108
68 160 113 118 100 225 157 335 176 93 17 282 18 550 5 417 -21 463 -23 540
-15 l79 7 59 60 c32 33 56 62 54 64 -2 3 -146 6 -320 7 -174 2 -320 6 -324 11
-29 29 370 231 612 309 201 65 532 116 753 117 39 0 72 -4 72 -9 0 -17 -331
-304 -425 -368 -33 -23 -132 -101 -220 -175 -88 -73 -188 -153 -223 -178 -70
-49 -92 -81 -92 -136 l0 -37 146 8 147 7 -7 -28 c-12 -45 -57 -100 -222 -274
-86 -91 -187 -205 -224 -255 -78 -104 -244 -271 -280 -280 -14 -4 -40 -25 -59
-48 l-33 -42 44 -5 c25 -3 520 -5 1101 -4 764 2 1061 6 1077 14 l21 11 -23 42
-23 42 -170 6 c-94 3 -426 8 -740 10 -785 5 -770 5 -860 -3 l-80 -8 25 20 c14
11 88 51 165 90 77 39 181 95 230 124 230 137 275 164 340 209 39 26 138 92
220 146 373 243 505 333 524 357 28 36 46 101 32 118 -7 8 -74 17 -201 26
-126 8 -190 17 -190 24 0 12 122 284 144 319 7 12 39 65 70 118 32 53 68 107
81 119 22 20 24 21 61 5 22 -9 95 -30 164 -46 207 -49 399 -121 512 -191 l37
-23 38 41 c21 22 49 48 63 58 l25 17 -25 21 c-103 87 -617 268 -762 268 -29 0
-50 5 -55 14 -6 11 -69 15 -313 19 -168 3 -345 1 -395 -4z m422 -291 c-62
-100 -149 -253 -171 -298 -14 -30 -46 -80 -71 -110 -81 -99 -100 -129 -86
-143 8 -8 70 -13 194 -15 100 -2 185 -7 189 -11 4 -3 4 -11 0 -17 -8 -12 -120
-86 -232 -154 -95 -57 -256 -168 -419 -288 -69 -52 -155 -110 -191 -130 -36
-19 -93 -55 -126 -79 -34 -24 -66 -43 -72 -43 -6 0 -2 15 9 35 26 43 279 323
427 472 l111 112 -37 10 c-45 11 -208 34 -240 34 -21 -1 -21 1 10 36 18 21 69
65 113 99 44 33 125 99 180 146 55 47 152 128 215 180 63 52 135 115 160 140
50 52 57 56 37 24z"/>
<path d="M6975 6088 c-25 -14 -85 -70 -85 -79 0 -5 25 -28 56 -53 56 -46 56
-46 133 -46 48 0 82 -5 90 -12 37 -36 -48 103 -91 149 -52 54 -68 61 -103 41z"/>
<path d="M5642 6082 c-10 -7 -10 -16 0 -48 13 -38 14 -39 73 -47 33 -4 101
-14 151 -22 126 -21 176 -19 208 6 24 19 86 100 86 113 0 9 -504 7 -518 -2z"/>
<path d="M6451 5829 c-58 -10 -144 -50 -228 -106 -99 -66 -181 -220 -198 -374
-14 -124 64 -332 166 -443 78 -86 241 -156 360 -156 59 0 204 41 286 80 164
80 271 285 261 503 -5 92 -8 103 -51 191 -91 183 -259 294 -467 309 -41 3 -99
1 -129 -4z m275 -197 c198 -107 272 -319 177 -511 -38 -78 -93 -133 -171 -172
-62 -31 -74 -34 -167 -34 -93 0 -105 2 -166 32 -79 39 -145 106 -191 194 -30
59 -33 72 -33 154 0 79 3 97 29 150 39 80 137 176 207 204 45 17 71 21 154 18
91 -2 105 -6 161 -35z"/>
<path d="M6477 5517 c-54 -17 -103 -60 -137 -120 -87 -152 22 -342 209 -364
39 -4 60 0 110 22 106 48 151 120 151 242 0 90 -47 155 -147 207 -43 22 -139
29 -186 13z"/>
<path d="M7473 5827 c-48 -25 -57 -80 -20 -121 22 -25 25 -25 190 -28 l169 -3
24 28 c32 37 32 86 1 115 -22 21 -31 22 -185 20 -89 -1 -170 -6 -179 -11z"/>
<path d="M8051 5814 c-39 -33 -41 -71 -5 -105 23 -22 34 -24 121 -24 89 0 96
2 115 25 15 18 18 33 14 60 -9 56 -35 70 -131 70 -75 0 -87 -3 -114 -26z"/>
<path d="M3420 5811 c-121 -39 -222 -113 -296 -217 -127 -178 -119 -433 21
-624 73 -99 219 -179 365 -200 80 -11 201 6 297 42 112 41 227 189 269 346 17
66 20 196 5 263 -34 153 -133 279 -271 349 -118 60 -280 77 -390 41z m212
-142 c82 -17 155 -58 207 -115 208 -228 91 -571 -216 -634 -131 -28 -309 56
-389 181 -80 127 -68 325 29 441 43 52 123 102 197 122 68 18 104 19 172 5z"/>
<path d="M3465 5519 c-117 -34 -193 -216 -136 -327 38 -75 128 -138 212 -149
127 -18 262 109 262 247 1 50 -32 131 -66 169 -38 41 -115 71 -182 70 -33 0
-73 -5 -90 -10z"/>
<path d="M7080 5810 c0 -18 48 -106 76 -139 24 -29 31 -32 78 -29 48 3 51 5
54 33 5 36 -14 104 -36 128 -12 13 -31 17 -94 17 -47 0 -78 -4 -78 -10z"/>
<path d="M4132 5768 c-39 -39 23 -121 99 -133 38 -6 186 7 194 17 1 2 5 31 8
66 l7 62 -148 0 c-102 0 -152 -4 -160 -12z"/>
<path d="M2860 5541 c17 -5 24 -14 23 -27 -1 -19 -1 -19 13 0 21 30 17 36 -23
35 -33 -1 -35 -2 -13 -8z"/>
<path d="M2561 5529 c-22 -9 -23 -13 -19 -87 3 -64 11 -93 48 -176 81 -183
127 -227 263 -251 40 -6 73 -11 75 -10 1 1 -11 44 -28 96 -22 65 -33 124 -38
194 -6 90 -7 95 -12 45 -4 -48 -8 -56 -32 -64 -22 -8 -39 -4 -91 20 -35 16
-62 34 -60 40 2 6 -8 19 -23 29 -18 11 -23 20 -16 27 13 13 4 38 -14 38 -8 0
-14 10 -14 23 0 16 -9 28 -25 35 -46 21 -27 32 56 32 51 0 78 4 74 10 -8 13
-112 12 -144 -1z"/>
<path d="M7874 5511 c-92 -9 -127 -50 -100 -116 20 -46 42 -55 141 -55 82 0
88 1 116 29 31 32 36 55 18 95 -13 27 -65 57 -96 54 -10 0 -45 -4 -79 -7z"/>
<path d="M7288 5493 c-54 -5 -55 -8 -42 -106 l6 -45 148 -7 c164 -8 208 0 230
39 16 32 6 71 -27 102 -25 23 -32 24 -147 22 -67 -1 -142 -3 -168 -5z"/>
<path d="M4270 5473 c-24 -10 -30 -26 -24 -63 9 -54 25 -90 41 -90 32 0 83 33
122 80 36 43 39 49 25 61 -17 14 -138 23 -164 12z"/>
<path d="M5695 5471 c-86 -7 -123 -24 -165 -78 l-20 -26 20 -14 c19 -13 295
-42 304 -32 2 2 6 39 8 82 l5 77 -36 -2 c-20 0 -72 -4 -116 -7z"/>
<path d="M2063 5290 c0 -25 2 -35 4 -22 2 12 2 32 0 45 -2 12 -4 2 -4 -23z"/>
<path d="M7260 5147 c-14 -6 -36 -34 -49 -61 -23 -45 -23 -50 -7 -61 24 -18
198 -30 226 -15 49 26 45 121 -7 141 -35 13 -133 11 -163 -4z"/>
<path d="M7598 5154 c-21 -6 -50 -68 -46 -96 2 -11 14 -29 28 -39 23 -16 53
-18 312 -20 310 -3 308 -3 327 53 10 28 8 33 -23 64 l-34 34 -169 0 c-94 0
-217 2 -274 5 -57 2 -111 2 -121 -1z"/>
<path d="M5095 5135 c-22 -8 -41 -15 -42 -15 0 0 -13 -21 -28 -46 -19 -33 -24
-49 -16 -54 18 -11 309 -20 623 -20 318 0 296 -8 257 94 l-22 56 -366 0 c-293
-1 -374 -4 -406 -15z"/>
<path d="M2127 4865 c27 -91 42 -108 108 -123 33 -7 85 -16 115 -21 67 -11
618 -14 747 -5 l93 7 -23 40 c-13 23 -35 45 -53 53 -35 15 -268 31 -569 39
-256 7 -365 21 -365 47 0 14 -7 17 -34 15 l-33 -2 14 -50z"/>
<path d="M7482 4825 c-73 -61 -16 -160 78 -135 98 26 90 140 -12 156 -27 5
-40 1 -66 -21z"/>
<path d="M7023 4811 c-33 -42 -46 -80 -30 -87 7 -2 78 -3 157 -2 l144 3 15 27
c12 20 13 34 5 55 l-9 28 -130 2 -130 2 -22 -28z"/>
<path d="M7767 4803 c-4 -3 -7 -22 -7 -40 0 -33 2 -34 33 -31 25 2 33 8 35 26
6 38 -37 69 -61 45z"/>
<path d="M6508 4565 c-2 -3 -966 -6 -2141 -7 -1175 -2 -2137 -4 -2137 -6 0
-36 201 -361 268 -434 67 -72 194 -168 275 -210 34 -17 124 -47 202 -67 l140
-36 1305 0 1305 0 95 24 c243 61 383 171 572 449 121 179 178 269 178 283 0 9
-53 13 -62 4z"/>
<path d="M6742 4537 c-31 -33 -49 -87 -31 -97 24 -15 99 -19 390 -22 270 -3
288 -2 308 16 31 28 28 79 -5 105 -26 20 -38 21 -334 21 l-307 0 -21 -23z"/>
<path d="M7492 4251 c-35 -23 -56 -63 -47 -92 3 -10 20 -30 36 -44 25 -20 41
-25 87 -25 61 0 86 14 116 61 19 30 11 62 -23 93 -33 30 -126 33 -169 7z"/>
<path d="M6637 4253 c-18 -3 -35 -16 -48 -36 -25 -41 -24 -49 6 -85 l24 -29
312 -6 313 -7 28 27 c37 36 37 75 -1 114 l-29 29 -289 -1 c-158 -1 -301 -4
-316 -6z"/>
<path d="M6987 3952 c-23 -25 -21 -49 4 -62 38 -21 69 36 37 68 -16 16 -22 15
-41 -6z"/>
<path d="M5050 3367 c0 -3 20 -40 45 -82 54 -91 135 -250 180 -355 18 -41 94
-200 169 -352 74 -152 142 -293 150 -313 l15 -36 67 3 67 3 18 50 c9 28 42 97
72 155 31 58 79 159 107 225 70 164 138 306 248 524 l93 184 -38 -7 c-21 -3
-86 -6 -144 -6 l-106 0 -38 -92 c-21 -51 -70 -163 -108 -248 -70 -156 -110
-249 -153 -350 -19 -45 -24 -51 -30 -35 -8 23 -65 145 -227 487 l-112 237
-122 1 c-67 0 -128 3 -137 6 -9 3 -16 4 -16 1z"/>
<path d="M4070 2793 l0 -568 440 0 440 0 0 107 0 106 -112 7 c-62 4 -209 5
-326 3 l-212 -3 0 128 0 127 260 0 260 0 0 105 0 105 -261 0 -261 0 6 23 c3
12 6 67 6 121 l0 99 285 -6 285 -5 0 109 0 109 -405 0 -405 0 0 -567z"/>
</g>
</svg>
